<svg xmlns="http://www.w3.org/2000/svg" xmlns:xlink="http://www.w3.org/1999/xlink" viewBox="0 0 64 64" width="100px" height="100px"><defs><rect id="zOt10NeCJpLJlmsRZOsAFa" width="280.487" height="124" x="654" y="-72"/></defs><clipPath id="zOt10NeCJpLJlmsRZOsAFb"><use overflow="visible" xlink:href="#zOt10NeCJpLJlmsRZOsAFa"/></clipPath><g><linearGradient id="zOt10NeCJpLJlmsRZOsAFc" x1="76.124" x2="76.124" y1="12.7" y2="50.192" gradientTransform="matrix(-1 0 0 1 115.415 0)" gradientUnits="userSpaceOnUse"><stop offset="0" stop-color="#1a6dff"/><stop offset="1" stop-color="#c822ff"/></linearGradient><path fill="url(#zOt10NeCJpLJlmsRZOsAFc)" d="M50.999,50.192c-0.597,0-1.19-0.179-1.702-0.531L25.882,33.513 c-0.824-0.568-1.31-1.505-1.298-2.506c0.013-1,0.52-1.925,1.356-2.474l23.416-15.342c0.923-0.604,2.099-0.655,3.07-0.129 C53.397,13.587,54,14.598,54,15.701v31.49c0,1.118-0.615,2.136-1.605,2.656C51.955,50.078,51.476,50.192,50.999,50.192z M50.992,14.697c-0.162,0-0.348,0.042-0.54,0.168L27.036,30.207c-0.283,0.186-0.448,0.485-0.452,0.824 c-0.004,0.338,0.154,0.643,0.433,0.835l23.415,16.148c0.45,0.311,0.872,0.146,1.033,0.062C51.8,47.9,52,47.569,52,47.191v-31.49 c0-0.538-0.367-0.794-0.524-0.88C51.385,14.772,51.21,14.697,50.992,14.697z"/><linearGradient id="zOt10NeCJpLJlmsRZOsAFd" x1="23.708" x2="23.708" y1="13.698" y2="49.195" gradientUnits="userSpaceOnUse"><stop offset="0" stop-color="#6dc7ff"/><stop offset="1" stop-color="#e6abff"/></linearGradient><path fill="url(#zOt10NeCJpLJlmsRZOsAFd)" d="M10,15.701v31.49c0,1.612,1.809,2.561,3.135,1.646l23.416-16.149 c1.169-0.806,1.149-2.541-0.039-3.319L13.096,14.028C11.766,13.157,10,14.111,10,15.701z"/><g><linearGradient id="zOt10NeCJpLJlmsRZOsAFe" x1="24.708" x2="24.708" y1="12.7" y2="50.192" gradientUnits="userSpaceOnUse"><stop offset="0" stop-color="#1a6dff"/><stop offset="1" stop-color="#c822ff"/></linearGradient><path fill="url(#zOt10NeCJpLJlmsRZOsAFe)" d="M13.001,50.192c-0.477,0-0.956-0.114-1.396-0.345C10.615,49.327,10,48.31,10,47.191v-31.49 c0-1.104,0.603-2.114,1.573-2.639c0.972-0.526,2.147-0.476,3.07,0.129L38.06,28.533c0.837,0.549,1.344,1.474,1.356,2.474 c0.012,1.001-0.474,1.938-1.298,2.506L14.703,49.661C14.191,50.014,13.598,50.192,13.001,50.192z M13.008,14.697 c-0.218,0-0.393,0.075-0.483,0.124C12.367,14.907,12,15.163,12,15.701v31.49c0,0.378,0.2,0.709,0.535,0.886 c0.161,0.084,0.583,0.25,1.033-0.062l23.415-16.148c0.278-0.192,0.437-0.497,0.433-0.835c-0.004-0.339-0.169-0.639-0.452-0.824 L13.548,14.865C13.355,14.739,13.17,14.697,13.008,14.697z"/></g></g></svg>